<svg xmlns="http://www.w3.org/2000/svg" viewBox="0 0 64 64" width="64" height="64">
  <rect width="64" height="64" rx="14" fill="#9a5b2c"/>
  <path d="M32 20 C27 15 20 14 14 19 L14 45 C20 41 27 42 32 46 Z" fill="#fffdf8"/>
  <path d="M32 20 C37 15 44 14 50 19 L50 45 C44 41 37 42 32 46 Z" fill="#f1e6d4"/>
  <line x1="32" y1="20" x2="32" y2="46" stroke="#7a4a22" stroke-width="1.4" opacity=".55"/>
  <g stroke="#9a5b2c" stroke-width="1.3" opacity=".22" stroke-linecap="round">
    <line x1="17" y1="27" x2="29" y2="25"/>
    <line x1="17" y1="32" x2="29" y2="31"/>
    <line x1="35" y1="25" x2="47" y2="27"/>
    <line x1="35" y1="31" x2="47" y2="32"/>
  </g>
  <path d="M29.5 12 L34.5 12 L34.5 31 L32 28 L29.5 31 Z" fill="#f4d9a8"/>
</svg>
